<svg xmlns="http://www.w3.org/2000/svg" xmlns:xlink="http://www.w3.org/1999/xlink" contentStyleType="text/css" height="685px" preserveAspectRatio="none" style="width:1463px;height:685px;background:#FFFFFF;" version="1.1" viewBox="0 0 1463 685" width="1463px" zoomAndPan="magnify"><title>Library Online Rental System - DDD Domain Model</title><defs/><g><text fill="#000000" font-family="sans-serif" font-size="14" font-weight="bold" lengthAdjust="spacing" textLength="337.6133" x="555.6934" y="25.1074">Library Online Rental System - DDD Domain Model</text><!--cluster User Aggregate--><g id="cluster_User Aggregate"><path d="M8.5,45.6348 L113.7549,45.6348 A3.75,3.75 0 0 1 116.2549,48.1348 L123.2549,70.2559 L449.5,70.2559 A2.5,2.5 0 0 1 452,72.7559 L452,477.6348 A2.5,2.5 0 0 1 449.5,480.1348 L8.5,480.1348 A2.5,2.5 0 0 1 6,477.6348 L6,48.1348 A2.5,2.5 0 0 1 8.5,45.6348 " fill="none" style="stroke:#000000;stroke-width:1.5;"/><line style="stroke:#000000;stroke-width:1.5;" x1="6" x2="123.2549" y1="70.2559" y2="70.2559"/><text fill="#000000" font-family="sans-serif" font-size="14" font-weight="bold" lengthAdjust="spacing" textLength="104.2549" x="10" y="62.7422">User Aggregate</text></g><!--cluster Book Aggregate--><g id="cluster_Book Aggregate"><path d="M831.5,64.6348 L940.624,64.6348 A3.75,3.75 0 0 1 943.124,67.1348 L950.124,89.2559 L1453.5,89.2559 A2.5,2.5 0 0 1 1456,91.7559 L1456,667.1348 A2.5,2.5 0 0 1 1453.5,669.6348 L831.5,669.6348 A2.5,2.5 0 0 1 829,667.1348 L829,67.1348 A2.5,2.5 0 0 1 831.5,64.6348 " fill="none" style="stroke:#000000;stroke-width:1.5;"/><line style="stroke:#000000;stroke-width:1.5;" x1="829" x2="950.124" y1="89.2559" y2="89.2559"/><text fill="#000000" font-family="sans-serif" font-size="14" font-weight="bold" lengthAdjust="spacing" textLength="108.124" x="833" y="81.7422">Book Aggregate</text></g><!--cluster Rental Aggregate--><g id="cluster_Rental Aggregate"><path d="M478.5,307.6348 L595.4102,307.6348 A3.75,3.75 0 0 1 597.9102,310.1348 L604.9102,332.2559 L802.5,332.2559 A2.5,2.5 0 0 1 805,334.7559 L805,676.1348 A2.5,2.5 0 0 1 802.5,678.6348 L478.5,678.6348 A2.5,2.5 0 0 1 476,676.1348 L476,310.1348 A2.5,2.5 0 0 1 478.5,307.6348 " fill="none" style="stroke:#000000;stroke-width:1.5;"/><line style="stroke:#000000;stroke-width:1.5;" x1="476" x2="604.9102" y1="332.2559" y2="332.2559"/><text fill="#000000" font-family="sans-serif" font-size="14" font-weight="bold" lengthAdjust="spacing" textLength="115.9102" x="480" y="324.7422">Rental Aggregate</text></g><!--class User--><g id="elem_User"><rect codeLine="9" fill="#F1F1F1" height="159.7266" id="User" rx="2.5" ry="2.5" style="stroke:#181818;stroke-width:0.5;" width="150.8926" x="284.5" y="82.6348"/><ellipse cx="340.917" cy="98.6348" fill="#ADD1B2" rx="11" ry="11" style="stroke:#181818;stroke-width:1.0;"/><path d="M343.6826,94.5098 Q343.8389,94.291 344.0264,94.1816 Q344.2139,94.0723 344.4326,94.0723 Q344.8076,94.0723 345.042,94.3379 Q345.2764,94.5879 345.2764,95.1973 L345.2764,96.6504 Q345.2764,97.2598 345.042,97.5254 Q344.8076,97.791 344.4326,97.791 Q344.0889,97.791 343.8857,97.5879 Q343.6826,97.4004 343.5732,96.8848 Q343.5264,96.5254 343.3389,96.3379 Q343.0107,95.9629 342.4014,95.7441 Q341.792,95.5254 341.167,95.5254 Q340.4014,95.5254 339.7607,95.8535 Q339.1357,96.1816 338.6357,96.9316 Q338.1514,97.6816 338.1514,98.7129 L338.1514,99.8066 Q338.1514,101.041 339.042,101.8691 Q339.9326,102.6816 341.5264,102.6816 Q342.4639,102.6816 343.1201,102.4316 Q343.5107,102.2754 343.9326,101.8379 Q344.1982,101.5723 344.3389,101.4941 Q344.4951,101.416 344.6982,101.416 Q345.0264,101.416 345.2764,101.6816 Q345.542,101.9316 345.542,102.2754 Q345.542,102.6191 345.1982,103.0254 Q344.6982,103.6035 343.9014,103.9316 Q342.8232,104.3848 341.5264,104.3848 Q340.0107,104.3848 338.8076,103.7598 Q337.8232,103.2598 337.1357,102.1973 Q336.4482,101.1191 336.4482,99.8379 L336.4482,98.6816 Q336.4482,97.3535 337.0576,96.2129 Q337.6826,95.0566 338.7764,94.4473 Q339.8701,93.8223 341.1045,93.8223 Q341.8389,93.8223 342.4795,93.9941 Q343.1357,94.1504 343.6826,94.5098 Z " fill="#000000"/><text fill="#000000" font-family="sans-serif" font-size="14" lengthAdjust="spacing" textLength="29.5586" x="361.417" y="104.4316">User</text><line style="stroke:#181818;stroke-width:0.5;" x1="285.5" x2="434.3926" y1="114.6348" y2="114.6348"/><text fill="#000000" font-family="sans-serif" font-size="14" lengthAdjust="spacing" textLength="86.7617" x="290.5" y="133.7422">+UserId: Guid</text><text fill="#000000" font-family="sans-serif" font-size="14" lengthAdjust="spacing" textLength="87.5342" x="290.5" y="152.3633">+Name: string</text><text fill="#000000" font-family="sans-serif" font-size="14" lengthAdjust="spacing" textLength="85.9688" x="290.5" y="170.9844">+Email: Email</text><text fill="#000000" font-family="sans-serif" font-size="14" lengthAdjust="spacing" textLength="138.8926" x="290.5" y="189.6055">+Password: Password</text><text fill="#000000" font-family="sans-serif" font-size="14" lengthAdjust="spacing" textLength="103.0996" x="290.5" y="208.2266">+Role: UserRole</text><text fill="#000000" font-family="sans-serif" font-size="14" lengthAdjust="spacing" textLength="124.8926" x="290.5" y="226.8477">+Status: UserStatus</text><line style="stroke:#181818;stroke-width:0.5;" x1="285.5" x2="434.3926" y1="234.3613" y2="234.3613"/></g><!--class Email--><g id="elem_Email"><rect codeLine="18" fill="#F1F1F1" height="97.8242" id="Email" rx="2.5" ry="2.5" style="stroke:#181818;stroke-width:0.5;" width="110.0342" x="37" y="366.1348"/><ellipse cx="53.4911" cy="388.4258" fill="#ADD1B2" rx="11" ry="11" style="stroke:#181818;stroke-width:1.0;"/><path d="M56.2567,384.3008 Q56.4129,384.082 56.6004,383.9727 Q56.7879,383.8633 57.0067,383.8633 Q57.3817,383.8633 57.6161,384.1289 Q57.8504,384.3789 57.8504,384.9883 L57.8504,386.4414 Q57.8504,387.0508 57.6161,387.3164 Q57.3817,387.582 57.0067,387.582 Q56.6629,387.582 56.4598,387.3789 Q56.2567,387.1914 56.1473,386.6758 Q56.1004,386.3164 55.9129,386.1289 Q55.5848,385.7539 54.9754,385.5352 Q54.3661,385.3164 53.7411,385.3164 Q52.9754,385.3164 52.3348,385.6445 Q51.7098,385.9727 51.2098,386.7227 Q50.7254,387.4727 50.7254,388.5039 L50.7254,389.5977 Q50.7254,390.832 51.6161,391.6602 Q52.5067,392.4727 54.1004,392.4727 Q55.0379,392.4727 55.6942,392.2227 Q56.0848,392.0664 56.5067,391.6289 Q56.7723,391.3633 56.9129,391.2852 Q57.0692,391.207 57.2723,391.207 Q57.6004,391.207 57.8504,391.4727 Q58.1161,391.7227 58.1161,392.0664 Q58.1161,392.4102 57.7723,392.8164 Q57.2723,393.3945 56.4754,393.7227 Q55.3973,394.1758 54.1004,394.1758 Q52.5848,394.1758 51.3817,393.5508 Q50.3973,393.0508 49.7098,391.9883 Q49.0223,390.9102 49.0223,389.6289 L49.0223,388.4727 Q49.0223,387.1445 49.6317,386.0039 Q50.2567,384.8477 51.3504,384.2383 Q52.4442,383.6133 53.6786,383.6133 Q54.4129,383.6133 55.0536,383.7852 Q55.7098,383.9414 56.2567,384.3008 Z " fill="#000000"/><text fill="#000000" font-family="sans-serif" font-size="12" font-style="italic" lengthAdjust="spacing" textLength="78.7207" x="65.8224" y="384.084">&#171;ValueObject&#187;</text><text fill="#000000" font-family="sans-serif" font-size="14" lengthAdjust="spacing" textLength="35.0068" x="87.6793" y="402.2031">Email</text><line style="stroke:#181818;stroke-width:0.5;" x1="38" x2="146.0342" y1="410.7168" y2="410.7168"/><text fill="#000000" font-family="sans-serif" font-size="14" lengthAdjust="spacing" textLength="98.0342" x="43" y="429.8242">-Address: string</text><line style="stroke:#181818;stroke-width:0.5;" x1="38" x2="146.0342" y1="437.3379" y2="437.3379"/><text fill="#000000" font-family="sans-serif" font-size="14" lengthAdjust="spacing" textLength="92.9893" x="43" y="456.4453">+isValid(): bool</text></g><!--class Password--><g id="elem_Password"><rect codeLine="23" fill="#F1F1F1" height="97.8242" id="Password" rx="2.5" ry="2.5" style="stroke:#181818;stroke-width:0.5;" width="252.8027" x="182.5" y="366.1348"/><ellipse cx="267.291" cy="388.4258" fill="#ADD1B2" rx="11" ry="11" style="stroke:#181818;stroke-width:1.0;"/><path d="M270.0566,384.3008 Q270.2129,384.082 270.4004,383.9727 Q270.5879,383.8633 270.8066,383.8633 Q271.1816,383.8633 271.416,384.1289 Q271.6504,384.3789 271.6504,384.9883 L271.6504,386.4414 Q271.6504,387.0508 271.416,387.3164 Q271.1816,387.582 270.8066,387.582 Q270.4629,387.582 270.2598,387.3789 Q270.0566,387.1914 269.9473,386.6758 Q269.9004,386.3164 269.7129,386.1289 Q269.3848,385.7539 268.7754,385.5352 Q268.166,385.3164 267.541,385.3164 Q266.7754,385.3164 266.1348,385.6445 Q265.5098,385.9727 265.0098,386.7227 Q264.5254,387.4727 264.5254,388.5039 L264.5254,389.5977 Q264.5254,390.832 265.416,391.6602 Q266.3066,392.4727 267.9004,392.4727 Q268.8379,392.4727 269.4941,392.2227 Q269.8848,392.0664 270.3066,391.6289 Q270.5723,391.3633 270.7129,391.2852 Q270.8691,391.207 271.0723,391.207 Q271.4004,391.207 271.6504,391.4727 Q271.916,391.7227 271.916,392.0664 Q271.916,392.4102 271.5723,392.8164 Q271.0723,393.3945 270.2754,393.7227 Q269.1973,394.1758 267.9004,394.1758 Q266.3848,394.1758 265.1816,393.5508 Q264.1973,393.0508 263.5098,391.9883 Q262.8223,390.9102 262.8223,389.6289 L262.8223,388.4727 Q262.8223,387.1445 263.4316,386.0039 Q264.0566,384.8477 265.1504,384.2383 Q266.2441,383.6133 267.4785,383.6133 Q268.2129,383.6133 268.8535,383.7852 Q269.5098,383.9414 270.0566,384.3008 Z " fill="#000000"/><text fill="#000000" font-family="sans-serif" font-size="12" font-style="italic" lengthAdjust="spacing" textLength="78.7207" x="285.791" y="384.084">&#171;ValueObject&#187;</text><text fill="#000000" font-family="sans-serif" font-size="14" lengthAdjust="spacing" textLength="61.4688" x="294.417" y="402.2031">Password</text><line style="stroke:#181818;stroke-width:0.5;" x1="183.5" x2="434.3027" y1="410.7168" y2="410.7168"/><text fill="#000000" font-family="sans-serif" font-size="14" lengthAdjust="spacing" textLength="79.3584" x="188.5" y="429.8242">-Hash: string</text><line style="stroke:#181818;stroke-width:0.5;" x1="183.5" x2="434.3027" y1="437.3379" y2="437.3379"/><text fill="#000000" font-family="sans-serif" font-size="14" lengthAdjust="spacing" textLength="240.8027" x="188.5" y="456.4453">+fromPlainText(pwd: string): Password</text></g><!--class UserRole--><g id="elem_UserRole"><rect codeLine="28" fill="#F1F1F1" height="103.8633" id="UserRole" rx="2.5" ry="2.5" style="stroke:#181818;stroke-width:0.5;" width="90.3516" x="159" y="110.6348"/><ellipse cx="174" cy="126.6348" fill="#EB937F" rx="11" ry="11" style="stroke:#181818;stroke-width:1.0;"/><path d="M172.8594,127.4316 L172.8594,129.9316 L177.1875,129.9316 L177.1875,129.0098 Q177.1875,128.4004 177.4219,128.1348 Q177.6719,127.8691 178.0469,127.8691 Q178.4219,127.8691 178.6563,128.1348 Q178.8906,128.4004 178.8906,129.0098 L178.8906,131.6348 L170.8906,131.6348 Q170.2656,131.6348 170,131.4004 Q169.75,131.166 169.75,130.7754 Q169.75,130.4004 170.0156,130.166 Q170.2813,129.9316 170.8906,129.9316 L171.1563,129.9316 L171.1563,123.2754 L170.8906,123.2754 Q170.2656,123.2754 170,123.041 Q169.75,122.8066 169.75,122.416 Q169.75,122.041 170,121.8066 Q170.2656,121.5723 170.8906,121.5723 L178.5156,121.5723 L178.5156,124.166 Q178.5156,124.7754 178.2813,125.041 Q178.0625,125.291 177.6719,125.291 Q177.2969,125.291 177.0625,125.041 Q176.8281,124.7754 176.8281,124.166 L176.8281,123.2754 L172.8594,123.2754 L172.8594,125.7285 L174.3438,125.7285 Q174.3438,125.0723 174.4688,124.8848 Q174.7344,124.4785 175.2031,124.4785 Q175.5781,124.4785 175.8125,124.7441 Q176.0469,124.9941 176.0469,125.6035 L176.0469,127.5723 Q176.0469,128.1191 175.9219,128.3066 Q175.6563,128.6973 175.2031,128.6973 Q174.7344,128.6973 174.4688,128.291 Q174.3438,128.1035 174.3438,127.4316 L172.8594,127.4316 Z " fill="#000000"/><text fill="#000000" font-family="sans-serif" font-size="14" lengthAdjust="spacing" textLength="58.3516" x="188" y="132.4316">UserRole</text><line style="stroke:#181818;stroke-width:0.5;" x1="160" x2="248.3516" y1="142.6348" y2="142.6348"/><text fill="#000000" font-family="sans-serif" font-size="14" lengthAdjust="spacing" textLength="38.8965" x="165" y="161.7422">USER</text><text fill="#000000" font-family="sans-serif" font-size="14" lengthAdjust="spacing" textLength="70.7861" x="165" y="180.3633">MANAGER</text><text fill="#000000" font-family="sans-serif" font-size="14" lengthAdjust="spacing" textLength="45.1104" x="165" y="198.9844">ADMIN</text><line style="stroke:#181818;stroke-width:0.5;" x1="160" x2="248.3516" y1="206.498" y2="206.498"/></g><!--class UserStatus--><g id="elem_UserStatus"><rect codeLine="34" fill="#F1F1F1" height="85.2422" id="UserStatus" rx="2.5" ry="2.5" style="stroke:#181818;stroke-width:0.5;" width="101.248" x="22.5" y="120.1348"/><ellipse cx="37.5" cy="136.1348" fill="#EB937F" rx="11" ry="11" style="stroke:#181818;stroke-width:1.0;"/><path d="M36.3594,136.9316 L36.3594,139.4316 L40.6875,139.4316 L40.6875,138.5098 Q40.6875,137.9004 40.9219,137.6348 Q41.1719,137.3691 41.5469,137.3691 Q41.9219,137.3691 42.1563,137.6348 Q42.3906,137.9004 42.3906,138.5098 L42.3906,141.1348 L34.3906,141.1348 Q33.7656,141.1348 33.5,140.9004 Q33.25,140.666 33.25,140.2754 Q33.25,139.9004 33.5156,139.666 Q33.7813,139.4316 34.3906,139.4316 L34.6563,139.4316 L34.6563,132.7754 L34.3906,132.7754 Q33.7656,132.7754 33.5,132.541 Q33.25,132.3066 33.25,131.916 Q33.25,131.541 33.5,131.3066 Q33.7656,131.0723 34.3906,131.0723 L42.0156,131.0723 L42.0156,133.666 Q42.0156,134.2754 41.7813,134.541 Q41.5625,134.791 41.1719,134.791 Q40.7969,134.791 40.5625,134.541 Q40.3281,134.2754 40.3281,133.666 L40.3281,132.7754 L36.3594,132.7754 L36.3594,135.2285 L37.8438,135.2285 Q37.8438,134.5723 37.9688,134.3848 Q38.2344,133.9785 38.7031,133.9785 Q39.0781,133.9785 39.3125,134.2441 Q39.5469,134.4941 39.5469,135.1035 L39.5469,137.0723 Q39.5469,137.6191 39.4219,137.8066 Q39.1563,138.1973 38.7031,138.1973 Q38.2344,138.1973 37.9688,137.791 Q37.8438,137.6035 37.8438,136.9316 L36.3594,136.9316 Z " fill="#000000"/><text fill="#000000" font-family="sans-serif" font-size="14" lengthAdjust="spacing" textLength="69.248" x="51.5" y="141.9316">UserStatus</text><line style="stroke:#181818;stroke-width:0.5;" x1="23.5" x2="122.748" y1="152.1348" y2="152.1348"/><text fill="#000000" font-family="sans-serif" font-size="14" lengthAdjust="spacing" textLength="38.124" x="28.5" y="171.2422">Active</text><text fill="#000000" font-family="sans-serif" font-size="14" lengthAdjust="spacing" textLength="49.8066" x="28.5" y="189.8633">Blocked</text><line style="stroke:#181818;stroke-width:0.5;" x1="23.5" x2="122.748" y1="197.377" y2="197.377"/></g><!--class Book--><g id="elem_Book"><rect codeLine="47" fill="#F1F1F1" height="122.4844" id="Book" rx="2.5" ry="2.5" style="stroke:#181818;stroke-width:0.5;" width="115.1133" x="1030.5" y="101.6348"/><ellipse cx="1068.5414" cy="117.6348" fill="#ADD1B2" rx="11" ry="11" style="stroke:#181818;stroke-width:1.0;"/><path d="M1071.307,113.5098 Q1071.4633,113.291 1071.6508,113.1816 Q1071.8383,113.0723 1072.057,113.0723 Q1072.432,113.0723 1072.6664,113.3379 Q1072.9008,113.5879 1072.9008,114.1973 L1072.9008,115.6504 Q1072.9008,116.2598 1072.6664,116.5254 Q1072.432,116.791 1072.057,116.791 Q1071.7133,116.791 1071.5102,116.5879 Q1071.307,116.4004 1071.1977,115.8848 Q1071.1508,115.5254 1070.9633,115.3379 Q1070.6352,114.9629 1070.0258,114.7441 Q1069.4164,114.5254 1068.7914,114.5254 Q1068.0258,114.5254 1067.3852,114.8535 Q1066.7602,115.1816 1066.2602,115.9316 Q1065.7758,116.6816 1065.7758,117.7129 L1065.7758,118.8066 Q1065.7758,120.041 1066.6664,120.8691 Q1067.557,121.6816 1069.1508,121.6816 Q1070.0883,121.6816 1070.7445,121.4316 Q1071.1352,121.2754 1071.557,120.8379 Q1071.8227,120.5723 1071.9633,120.4941 Q1072.1195,120.416 1072.3227,120.416 Q1072.6508,120.416 1072.9008,120.6816 Q1073.1664,120.9316 1073.1664,121.2754 Q1073.1664,121.6191 1072.8227,122.0254 Q1072.3227,122.6035 1071.5258,122.9316 Q1070.4477,123.3848 1069.1508,123.3848 Q1067.6352,123.3848 1066.432,122.7598 Q1065.4477,122.2598 1064.7602,121.1973 Q1064.0727,120.1191 1064.0727,118.8379 L1064.0727,117.6816 Q1064.0727,116.3535 1064.682,115.2129 Q1065.307,114.0566 1066.4008,113.4473 Q1067.4945,112.8223 1068.7289,112.8223 Q1069.4633,112.8223 1070.1039,112.9941 Q1070.7602,113.1504 1071.307,113.5098 Z " fill="#000000"/><text fill="#000000" font-family="sans-serif" font-size="14" lengthAdjust="spacing" textLength="31.9102" x="1087.6617" y="123.4316">Book</text><line style="stroke:#181818;stroke-width:0.5;" x1="1031.5" x2="1144.6133" y1="133.6348" y2="133.6348"/><text fill="#000000" font-family="sans-serif" font-size="14" lengthAdjust="spacing" textLength="89.1133" x="1036.5" y="152.7422">+BookId: Guid</text><text fill="#000000" font-family="sans-serif" font-size="14" lengthAdjust="spacing" textLength="94.5684" x="1036.5" y="171.3633">+Info: BookInfo</text><text fill="#000000" font-family="sans-serif" font-size="14" lengthAdjust="spacing" textLength="81.3066" x="1036.5" y="189.9844">+ISBN: ISBN</text><text fill="#000000" font-family="sans-serif" font-size="14" lengthAdjust="spacing" textLength="103.1133" x="1036.5" y="208.6055">+Copies: Copies</text><line style="stroke:#181818;stroke-width:0.5;" x1="1031.5" x2="1144.6133" y1="216.1191" y2="216.1191"/></g><!--class BookInfo--><g id="elem_BookInfo"><rect codeLine="54" fill="#F1F1F1" height="135.0664" id="BookInfo" rx="2.5" ry="2.5" style="stroke:#181818;stroke-width:0.5;" width="117.041" x="1029.5" y="347.6348"/><ellipse cx="1049.1441" cy="369.9258" fill="#ADD1B2" rx="11" ry="11" style="stroke:#181818;stroke-width:1.0;"/><path d="M1051.9098,365.8008 Q1052.066,365.582 1052.2535,365.4727 Q1052.441,365.3633 1052.6598,365.3633 Q1053.0348,365.3633 1053.2691,365.6289 Q1053.5035,365.8789 1053.5035,366.4883 L1053.5035,367.9414 Q1053.5035,368.5508 1053.2691,368.8164 Q1053.0348,369.082 1052.6598,369.082 Q1052.316,369.082 1052.1129,368.8789 Q1051.9098,368.6914 1051.8004,368.1758 Q1051.7535,367.8164 1051.566,367.6289 Q1051.2379,367.2539 1050.6285,367.0352 Q1050.0191,366.8164 1049.3941,366.8164 Q1048.6285,366.8164 1047.9879,367.1445 Q1047.3629,367.4727 1046.8629,368.2227 Q1046.3785,368.9727 1046.3785,370.0039 L1046.3785,371.0977 Q1046.3785,372.332 1047.2691,373.1602 Q1048.1598,373.9727 1049.7535,373.9727 Q1050.691,373.9727 1051.3473,373.7227 Q1051.7379,373.5664 1052.1598,373.1289 Q1052.4254,372.8633 1052.566,372.7852 Q1052.7223,372.707 1052.9254,372.707 Q1053.2535,372.707 1053.5035,372.9727 Q1053.7691,373.2227 1053.7691,373.5664 Q1053.7691,373.9102 1053.4254,374.3164 Q1052.9254,374.8945 1052.1285,375.2227 Q1051.0504,375.6758 1049.7535,375.6758 Q1048.2379,375.6758 1047.0348,375.0508 Q1046.0504,374.5508 1045.3629,373.4883 Q1044.6754,372.4102 1044.6754,371.1289 L1044.6754,369.9727 Q1044.6754,368.6445 1045.2848,367.5039 Q1045.9098,366.3477 1047.0035,365.7383 Q1048.0973,365.1133 1049.3316,365.1133 Q1050.066,365.1133 1050.7066,365.2852 Q1051.3629,365.4414 1051.9098,365.8008 Z " fill="#000000"/><text fill="#000000" font-family="sans-serif" font-size="12" font-style="italic" lengthAdjust="spacing" textLength="78.7207" x="1062.1762" y="365.584">&#171;ValueObject&#187;</text><text fill="#000000" font-family="sans-serif" font-size="14" lengthAdjust="spacing" textLength="55.2617" x="1073.9057" y="383.7031">BookInfo</text><line style="stroke:#181818;stroke-width:0.5;" x1="1030.5" x2="1145.541" y1="392.2168" y2="392.2168"/><text fill="#000000" font-family="sans-serif" font-size="14" lengthAdjust="spacing" textLength="73.124" x="1035.5" y="411.3242">-Title: string</text><text fill="#000000" font-family="sans-serif" font-size="14" lengthAdjust="spacing" textLength="87.9238" x="1035.5" y="429.9453">-Author: string</text><text fill="#000000" font-family="sans-serif" font-size="14" lengthAdjust="spacing" textLength="105.041" x="1035.5" y="448.5664">-Publisher: string</text><text fill="#000000" font-family="sans-serif" font-size="14" lengthAdjust="spacing" textLength="103.4824" x="1035.5" y="467.1875">-Category: string</text><line style="stroke:#181818;stroke-width:0.5;" x1="1030.5" x2="1145.541" y1="474.7012" y2="474.7012"/></g><!--class ISBN--><g id="elem_ISBN"><rect codeLine="61" fill="#F1F1F1" height="97.8242" id="ISBN" rx="2.5" ry="2.5" style="stroke:#181818;stroke-width:0.5;" width="106.7207" x="1181.5" y="366.1348"/><ellipse cx="1196.5" cy="388.4258" fill="#ADD1B2" rx="11" ry="11" style="stroke:#181818;stroke-width:1.0;"/><path d="M1199.2656,384.3008 Q1199.4219,384.082 1199.6094,383.9727 Q1199.7969,383.8633 1200.0156,383.8633 Q1200.3906,383.8633 1200.625,384.1289 Q1200.8594,384.3789 1200.8594,384.9883 L1200.8594,386.4414 Q1200.8594,387.0508 1200.625,387.3164 Q1200.3906,387.582 1200.0156,387.582 Q1199.6719,387.582 1199.4688,387.3789 Q1199.2656,387.1914 1199.1563,386.6758 Q1199.1094,386.3164 1198.9219,386.1289 Q1198.5938,385.7539 1197.9844,385.5352 Q1197.375,385.3164 1196.75,385.3164 Q1195.9844,385.3164 1195.3438,385.6445 Q1194.7188,385.9727 1194.2188,386.7227 Q1193.7344,387.4727 1193.7344,388.5039 L1193.7344,389.5977 Q1193.7344,390.832 1194.625,391.6602 Q1195.5156,392.4727 1197.1094,392.4727 Q1198.0469,392.4727 1198.7031,392.2227 Q1199.0938,392.0664 1199.5156,391.6289 Q1199.7813,391.3633 1199.9219,391.2852 Q1200.0781,391.207 1200.2813,391.207 Q1200.6094,391.207 1200.8594,391.4727 Q1201.125,391.7227 1201.125,392.0664 Q1201.125,392.4102 1200.7813,392.8164 Q1200.2813,393.3945 1199.4844,393.7227 Q1198.4063,394.1758 1197.1094,394.1758 Q1195.5938,394.1758 1194.3906,393.5508 Q1193.4063,393.0508 1192.7188,391.9883 Q1192.0313,390.9102 1192.0313,389.6289 L1192.0313,388.4727 Q1192.0313,387.1445 1192.6406,386.0039 Q1193.2656,384.8477 1194.3594,384.2383 Q1195.4531,383.6133 1196.6875,383.6133 Q1197.4219,383.6133 1198.0625,383.7852 Q1198.7188,383.9414 1199.2656,384.3008 Z " fill="#000000"/><text fill="#000000" font-family="sans-serif" font-size="12" font-style="italic" lengthAdjust="spacing" textLength="78.7207" x="1208.5" y="384.084">&#171;ValueObject&#187;</text><text fill="#000000" font-family="sans-serif" font-size="14" lengthAdjust="spacing" textLength="32.6758" x="1231.5225" y="402.2031">ISBN</text><line style="stroke:#181818;stroke-width:0.5;" x1="1182.5" x2="1287.2207" y1="410.7168" y2="410.7168"/><text fill="#000000" font-family="sans-serif" font-size="14" lengthAdjust="spacing" textLength="80.1445" x="1187.5" y="429.8242">-Code: string</text><line style="stroke:#181818;stroke-width:0.5;" x1="1182.5" x2="1287.2207" y1="437.3379" y2="437.3379"/><text fill="#000000" font-family="sans-serif" font-size="14" lengthAdjust="spacing" textLength="92.9893" x="1187.5" y="456.4453">+isValid(): bool</text></g><!--class Copies--><g id="elem_Copies"><rect codeLine="66" fill="#F1F1F1" height="116.4453" id="Copies" rx="2.5" ry="2.5" style="stroke:#181818;stroke-width:0.5;" width="115.8926" x="1324" y="357.1348"/><ellipse cx="1343.1273" cy="379.4258" fill="#ADD1B2" rx="11" ry="11" style="stroke:#181818;stroke-width:1.0;"/><path d="M1345.893,375.3008 Q1346.0492,375.082 1346.2367,374.9727 Q1346.4242,374.8633 1346.643,374.8633 Q1347.018,374.8633 1347.2523,375.1289 Q1347.4867,375.3789 1347.4867,375.9883 L1347.4867,377.4414 Q1347.4867,378.0508 1347.2523,378.3164 Q1347.018,378.582 1346.643,378.582 Q1346.2992,378.582 1346.0961,378.3789 Q1345.893,378.1914 1345.7836,377.6758 Q1345.7367,377.3164 1345.5492,377.1289 Q1345.2211,376.7539 1344.6117,376.5352 Q1344.0023,376.3164 1343.3773,376.3164 Q1342.6117,376.3164 1341.9711,376.6445 Q1341.3461,376.9727 1340.8461,377.7227 Q1340.3617,378.4727 1340.3617,379.5039 L1340.3617,380.5977 Q1340.3617,381.832 1341.2523,382.6602 Q1342.143,383.4727 1343.7367,383.4727 Q1344.6742,383.4727 1345.3305,383.2227 Q1345.7211,383.0664 1346.143,382.6289 Q1346.4086,382.3633 1346.5492,382.2852 Q1346.7055,382.207 1346.9086,382.207 Q1347.2367,382.207 1347.4867,382.4727 Q1347.7523,382.7227 1347.7523,383.0664 Q1347.7523,383.4102 1347.4086,383.8164 Q1346.9086,384.3945 1346.1117,384.7227 Q1345.0336,385.1758 1343.7367,385.1758 Q1342.2211,385.1758 1341.018,384.5508 Q1340.0336,384.0508 1339.3461,382.9883 Q1338.6586,381.9102 1338.6586,380.6289 L1338.6586,379.4727 Q1338.6586,378.1445 1339.268,377.0039 Q1339.893,375.8477 1340.9867,375.2383 Q1342.0805,374.6133 1343.3148,374.6133 Q1344.0492,374.6133 1344.6898,374.7852 Q1345.3461,374.9414 1345.893,375.3008 Z " fill="#000000"/><text fill="#000000" font-family="sans-serif" font-size="12" font-style="italic" lengthAdjust="spacing" textLength="78.7207" x="1356.0445" y="375.084">&#171;ValueObject&#187;</text><text fill="#000000" font-family="sans-serif" font-size="14" lengthAdjust="spacing" textLength="43.5791" x="1373.6153" y="393.2031">Copies</text><line style="stroke:#181818;stroke-width:0.5;" x1="1325" x2="1438.8926" y1="401.7168" y2="401.7168"/><text fill="#000000" font-family="sans-serif" font-size="14" lengthAdjust="spacing" textLength="84.041" x="1330" y="420.8242">-Available: int</text><text fill="#000000" font-family="sans-serif" font-size="14" lengthAdjust="spacing" textLength="58.3516" x="1330" y="439.4453">-Total: int</text><line style="stroke:#181818;stroke-width:0.5;" x1="1325" x2="1438.8926" y1="446.959" y2="446.959"/><text fill="#000000" font-family="sans-serif" font-size="14" lengthAdjust="spacing" textLength="103.8926" x="1330" y="466.0664">+canRent(): bool</text></g><!--class Rating--><g id="elem_Rating"><rect codeLine="72" fill="#F1F1F1" height="141.1055" id="Rating" rx="2.5" ry="2.5" style="stroke:#181818;stroke-width:0.5;" width="149.3203" x="845.5" y="344.6348"/><ellipse cx="895.6758" cy="360.6348" fill="#ADD1B2" rx="11" ry="11" style="stroke:#181818;stroke-width:1.0;"/><path d="M898.4414,356.5098 Q898.5977,356.291 898.7852,356.1816 Q898.9727,356.0723 899.1914,356.0723 Q899.5664,356.0723 899.8008,356.3379 Q900.0352,356.5879 900.0352,357.1973 L900.0352,358.6504 Q900.0352,359.2598 899.8008,359.5254 Q899.5664,359.791 899.1914,359.791 Q898.8477,359.791 898.6445,359.5879 Q898.4414,359.4004 898.332,358.8848 Q898.2852,358.5254 898.0977,358.3379 Q897.7695,357.9629 897.1602,357.7441 Q896.5508,357.5254 895.9258,357.5254 Q895.1602,357.5254 894.5195,357.8535 Q893.8945,358.1816 893.3945,358.9316 Q892.9102,359.6816 892.9102,360.7129 L892.9102,361.8066 Q892.9102,363.041 893.8008,363.8691 Q894.6914,364.6816 896.2852,364.6816 Q897.2227,364.6816 897.8789,364.4316 Q898.2695,364.2754 898.6914,363.8379 Q898.957,363.5723 899.0977,363.4941 Q899.2539,363.416 899.457,363.416 Q899.7852,363.416 900.0352,363.6816 Q900.3008,363.9316 900.3008,364.2754 Q900.3008,364.6191 899.957,365.0254 Q899.457,365.6035 898.6602,365.9316 Q897.582,366.3848 896.2852,366.3848 Q894.7695,366.3848 893.5664,365.7598 Q892.582,365.2598 891.8945,364.1973 Q891.207,363.1191 891.207,361.8379 L891.207,360.6816 Q891.207,359.3535 891.8164,358.2129 Q892.4414,357.0566 893.5352,356.4473 Q894.6289,355.8223 895.8633,355.8223 Q896.5977,355.8223 897.2383,355.9941 Q897.8945,356.1504 898.4414,356.5098 Z " fill="#000000"/><text fill="#000000" font-family="sans-serif" font-size="14" lengthAdjust="spacing" textLength="40.4688" x="916.1758" y="366.4316">Rating</text><line style="stroke:#181818;stroke-width:0.5;" x1="846.5" x2="993.8203" y1="376.6348" y2="376.6348"/><text fill="#000000" font-family="sans-serif" font-size="14" lengthAdjust="spacing" textLength="97.6719" x="851.5" y="395.7422">+RatingId: Guid</text><text fill="#000000" font-family="sans-serif" font-size="14" lengthAdjust="spacing" textLength="86.7617" x="851.5" y="414.3633">+UserId: Guid</text><text fill="#000000" font-family="sans-serif" font-size="14" lengthAdjust="spacing" textLength="129.5684" x="851.5" y="432.9844">+Score: RatingScore</text><text fill="#000000" font-family="sans-serif" font-size="14" lengthAdjust="spacing" textLength="137.3203" x="851.5" y="451.6055">+Comment: Comment</text><text fill="#000000" font-family="sans-serif" font-size="14" lengthAdjust="spacing" textLength="106.21" x="851.5" y="470.2266">+Date: DateTime</text><line style="stroke:#181818;stroke-width:0.5;" x1="846.5" x2="993.8203" y1="477.7402" y2="477.7402"/></g><!--class RatingScore--><g id="elem_RatingScore"><rect codeLine="80" fill="#F1F1F1" height="97.8242" id="RatingScore" rx="2.5" ry="2.5" style="stroke:#181818;stroke-width:0.5;" width="109.041" x="851.5" y="555.6348"/><ellipse cx="866.5" cy="577.9258" fill="#ADD1B2" rx="11" ry="11" style="stroke:#181818;stroke-width:1.0;"/><path d="M869.2656,573.8008 Q869.4219,573.582 869.6094,573.4727 Q869.7969,573.3633 870.0156,573.3633 Q870.3906,573.3633 870.625,573.6289 Q870.8594,573.8789 870.8594,574.4883 L870.8594,575.9414 Q870.8594,576.5508 870.625,576.8164 Q870.3906,577.082 870.0156,577.082 Q869.6719,577.082 869.4688,576.8789 Q869.2656,576.6914 869.1563,576.1758 Q869.1094,575.8164 868.9219,575.6289 Q868.5938,575.2539 867.9844,575.0352 Q867.375,574.8164 866.75,574.8164 Q865.9844,574.8164 865.3438,575.1445 Q864.7188,575.4727 864.2188,576.2227 Q863.7344,576.9727 863.7344,578.0039 L863.7344,579.0977 Q863.7344,580.332 864.625,581.1602 Q865.5156,581.9727 867.1094,581.9727 Q868.0469,581.9727 868.7031,581.7227 Q869.0938,581.5664 869.5156,581.1289 Q869.7813,580.8633 869.9219,580.7852 Q870.0781,580.707 870.2813,580.707 Q870.6094,580.707 870.8594,580.9727 Q871.125,581.2227 871.125,581.5664 Q871.125,581.9102 870.7813,582.3164 Q870.2813,582.8945 869.4844,583.2227 Q868.4063,583.6758 867.1094,583.6758 Q865.5938,583.6758 864.3906,583.0508 Q863.4063,582.5508 862.7188,581.4883 Q862.0313,580.4102 862.0313,579.1289 L862.0313,577.9727 Q862.0313,576.6445 862.6406,575.5039 Q863.2656,574.3477 864.3594,573.7383 Q865.4531,573.1133 866.6875,573.1133 Q867.4219,573.1133 868.0625,573.2852 Q868.7188,573.4414 869.2656,573.8008 Z " fill="#000000"/><text fill="#000000" font-family="sans-serif" font-size="12" font-style="italic" lengthAdjust="spacing" textLength="78.7207" x="879.6602" y="573.584">&#171;ValueObject&#187;</text><text fill="#000000" font-family="sans-serif" font-size="14" lengthAdjust="spacing" textLength="77.041" x="880.5" y="591.7031">RatingScore</text><line style="stroke:#181818;stroke-width:0.5;" x1="852.5" x2="959.541" y1="600.2168" y2="600.2168"/><text fill="#000000" font-family="sans-serif" font-size="14" lengthAdjust="spacing" textLength="63.7998" x="857.5" y="619.3242">-Score: int</text><line style="stroke:#181818;stroke-width:0.5;" x1="852.5" x2="959.541" y1="626.8379" y2="626.8379"/><text fill="#000000" font-family="sans-serif" font-size="14" lengthAdjust="spacing" textLength="92.9893" x="857.5" y="645.9453">+isValid(): bool</text></g><!--class Comment--><g id="elem_Comment"><rect codeLine="85" fill="#F1F1F1" height="97.8242" id="Comment" rx="2.5" ry="2.5" style="stroke:#181818;stroke-width:0.5;" width="118.9824" x="995.5" y="555.6348"/><ellipse cx="1016.0178" cy="577.9258" fill="#ADD1B2" rx="11" ry="11" style="stroke:#181818;stroke-width:1.0;"/><path d="M1018.7834,573.8008 Q1018.9396,573.582 1019.1271,573.4727 Q1019.3146,573.3633 1019.5334,573.3633 Q1019.9084,573.3633 1020.1428,573.6289 Q1020.3771,573.8789 1020.3771,574.4883 L1020.3771,575.9414 Q1020.3771,576.5508 1020.1428,576.8164 Q1019.9084,577.082 1019.5334,577.082 Q1019.1896,577.082 1018.9865,576.8789 Q1018.7834,576.6914 1018.674,576.1758 Q1018.6271,575.8164 1018.4396,575.6289 Q1018.1115,575.2539 1017.5021,575.0352 Q1016.8928,574.8164 1016.2678,574.8164 Q1015.5021,574.8164 1014.8615,575.1445 Q1014.2365,575.4727 1013.7365,576.2227 Q1013.2521,576.9727 1013.2521,578.0039 L1013.2521,579.0977 Q1013.2521,580.332 1014.1428,581.1602 Q1015.0334,581.9727 1016.6271,581.9727 Q1017.5646,581.9727 1018.2209,581.7227 Q1018.6115,581.5664 1019.0334,581.1289 Q1019.299,580.8633 1019.4396,580.7852 Q1019.5959,580.707 1019.799,580.707 Q1020.1271,580.707 1020.3771,580.9727 Q1020.6428,581.2227 1020.6428,581.5664 Q1020.6428,581.9102 1020.299,582.3164 Q1019.799,582.8945 1019.0021,583.2227 Q1017.924,583.6758 1016.6271,583.6758 Q1015.1115,583.6758 1013.9084,583.0508 Q1012.924,582.5508 1012.2365,581.4883 Q1011.549,580.4102 1011.549,579.1289 L1011.549,577.9727 Q1011.549,576.6445 1012.1584,575.5039 Q1012.7834,574.3477 1013.8771,573.7383 Q1014.9709,573.1133 1016.2053,573.1133 Q1016.9396,573.1133 1017.5803,573.2852 Q1018.2365,573.4414 1018.7834,573.8008 Z " fill="#000000"/><text fill="#000000" font-family="sans-serif" font-size="12" font-style="italic" lengthAdjust="spacing" textLength="78.7207" x="1029.2439" y="573.584">&#171;ValueObject&#187;</text><text fill="#000000" font-family="sans-serif" font-size="14" lengthAdjust="spacing" textLength="60.6826" x="1038.263" y="591.7031">Comment</text><line style="stroke:#181818;stroke-width:0.5;" x1="996.5" x2="1113.4824" y1="600.2168" y2="600.2168"/><text fill="#000000" font-family="sans-serif" font-size="14" lengthAdjust="spacing" textLength="73.9033" x="1001.5" y="619.3242">-Text: string</text><line style="stroke:#181818;stroke-width:0.5;" x1="996.5" x2="1113.4824" y1="626.8379" y2="626.8379"/><text fill="#000000" font-family="sans-serif" font-size="14" lengthAdjust="spacing" textLength="106.9824" x="1001.5" y="645.9453">+sanitize(): string</text></g><!--class Rental--><g id="elem_Rental"><rect codeLine="102" fill="#F1F1F1" height="141.1055" id="Rental" rx="2.5" ry="2.5" style="stroke:#181818;stroke-width:0.5;" width="149.3613" x="639.5" y="344.6348"/><ellipse cx="689.6963" cy="360.6348" fill="#ADD1B2" rx="11" ry="11" style="stroke:#181818;stroke-width:1.0;"/><path d="M692.4619,356.5098 Q692.6182,356.291 692.8057,356.1816 Q692.9932,356.0723 693.2119,356.0723 Q693.5869,356.0723 693.8213,356.3379 Q694.0557,356.5879 694.0557,357.1973 L694.0557,358.6504 Q694.0557,359.2598 693.8213,359.5254 Q693.5869,359.791 693.2119,359.791 Q692.8682,359.791 692.665,359.5879 Q692.4619,359.4004 692.3525,358.8848 Q692.3057,358.5254 692.1182,358.3379 Q691.79,357.9629 691.1807,357.7441 Q690.5713,357.5254 689.9463,357.5254 Q689.1807,357.5254 688.54,357.8535 Q687.915,358.1816 687.415,358.9316 Q686.9307,359.6816 686.9307,360.7129 L686.9307,361.8066 Q686.9307,363.041 687.8213,363.8691 Q688.7119,364.6816 690.3057,364.6816 Q691.2432,364.6816 691.8994,364.4316 Q692.29,364.2754 692.7119,363.8379 Q692.9775,363.5723 693.1182,363.4941 Q693.2744,363.416 693.4775,363.416 Q693.8057,363.416 694.0557,363.6816 Q694.3213,363.9316 694.3213,364.2754 Q694.3213,364.6191 693.9775,365.0254 Q693.4775,365.6035 692.6807,365.9316 Q691.6025,366.3848 690.3057,366.3848 Q688.79,366.3848 687.5869,365.7598 Q686.6025,365.2598 685.915,364.1973 Q685.2275,363.1191 685.2275,361.8379 L685.2275,360.6816 Q685.2275,359.3535 685.8369,358.2129 Q686.4619,357.0566 687.5557,356.4473 Q688.6494,355.8223 689.8838,355.8223 Q690.6182,355.8223 691.2588,355.9941 Q691.915,356.1504 692.4619,356.5098 Z " fill="#000000"/><text fill="#000000" font-family="sans-serif" font-size="14" lengthAdjust="spacing" textLength="40.4688" x="710.1963" y="366.4316">Rental</text><line style="stroke:#181818;stroke-width:0.5;" x1="640.5" x2="787.8613" y1="376.6348" y2="376.6348"/><text fill="#000000" font-family="sans-serif" font-size="14" lengthAdjust="spacing" textLength="97.6719" x="645.5" y="395.7422">+RentalId: Guid</text><text fill="#000000" font-family="sans-serif" font-size="14" lengthAdjust="spacing" textLength="86.7617" x="645.5" y="414.3633">+UserId: Guid</text><text fill="#000000" font-family="sans-serif" font-size="14" lengthAdjust="spacing" textLength="89.1133" x="645.5" y="432.9844">+BookId: Guid</text><text fill="#000000" font-family="sans-serif" font-size="14" lengthAdjust="spacing" textLength="137.3613" x="645.5" y="451.6055">+Period: RentalPeriod</text><text fill="#000000" font-family="sans-serif" font-size="14" lengthAdjust="spacing" textLength="135.8027" x="645.5" y="470.2266">+Status: RentalStatus</text><line style="stroke:#181818;stroke-width:0.5;" x1="640.5" x2="787.8613" y1="477.7402" y2="477.7402"/></g><!--class RentalPeriod--><g id="elem_RentalPeriod"><rect codeLine="110" fill="#F1F1F1" height="116.4453" id="RentalPeriod" rx="2.5" ry="2.5" style="stroke:#181818;stroke-width:0.5;" width="144.2617" x="642" y="546.6348"/><ellipse cx="671.0959" cy="568.9258" fill="#ADD1B2" rx="11" ry="11" style="stroke:#181818;stroke-width:1.0;"/><path d="M673.8615,564.8008 Q674.0178,564.582 674.2053,564.4727 Q674.3928,564.3633 674.6115,564.3633 Q674.9865,564.3633 675.2209,564.6289 Q675.4553,564.8789 675.4553,565.4883 L675.4553,566.9414 Q675.4553,567.5508 675.2209,567.8164 Q674.9865,568.082 674.6115,568.082 Q674.2678,568.082 674.0646,567.8789 Q673.8615,567.6914 673.7521,567.1758 Q673.7053,566.8164 673.5178,566.6289 Q673.1896,566.2539 672.5803,566.0352 Q671.9709,565.8164 671.3459,565.8164 Q670.5803,565.8164 669.9396,566.1445 Q669.3146,566.4727 668.8146,567.2227 Q668.3303,567.9727 668.3303,569.0039 L668.3303,570.0977 Q668.3303,571.332 669.2209,572.1602 Q670.1115,572.9727 671.7053,572.9727 Q672.6428,572.9727 673.299,572.7227 Q673.6896,572.5664 674.1115,572.1289 Q674.3771,571.8633 674.5178,571.7852 Q674.674,571.707 674.8771,571.707 Q675.2053,571.707 675.4553,571.9727 Q675.7209,572.2227 675.7209,572.5664 Q675.7209,572.9102 675.3771,573.3164 Q674.8771,573.8945 674.0803,574.2227 Q673.0021,574.6758 671.7053,574.6758 Q670.1896,574.6758 668.9865,574.0508 Q668.0021,573.5508 667.3146,572.4883 Q666.6271,571.4102 666.6271,570.1289 L666.6271,568.9727 Q666.6271,567.6445 667.2365,566.5039 Q667.8615,565.3477 668.9553,564.7383 Q670.049,564.1133 671.2834,564.1133 Q672.0178,564.1133 672.6584,564.2852 Q673.3146,564.4414 673.8615,564.8008 Z " fill="#000000"/><text fill="#000000" font-family="sans-serif" font-size="12" font-style="italic" lengthAdjust="spacing" textLength="78.7207" x="689.3367" y="564.584">&#171;ValueObject&#187;</text><text fill="#000000" font-family="sans-serif" font-size="14" lengthAdjust="spacing" textLength="80.9375" x="688.2283" y="582.7031">RentalPeriod</text><line style="stroke:#181818;stroke-width:0.5;" x1="643" x2="785.2617" y1="591.2168" y2="591.2168"/><text fill="#000000" font-family="sans-serif" font-size="14" lengthAdjust="spacing" textLength="132.2617" x="648" y="610.3242">-StartDate: DateTime</text><text fill="#000000" font-family="sans-serif" font-size="14" lengthAdjust="spacing" textLength="128.3789" x="648" y="628.9453">-DueDate: DateTime</text><line style="stroke:#181818;stroke-width:0.5;" x1="643" x2="785.2617" y1="636.459" y2="636.459"/><text fill="#000000" font-family="sans-serif" font-size="14" lengthAdjust="spacing" textLength="115.5547" x="648" y="655.5664">+isOverdue(): bool</text></g><!--class RentalStatus--><g id="elem_RentalStatus"><rect codeLine="116" fill="#F1F1F1" height="103.8633" id="RentalStatus" rx="2.5" ry="2.5" style="stroke:#181818;stroke-width:0.5;" width="112.1582" x="492" y="363.1348"/><ellipse cx="507" cy="379.1348" fill="#EB937F" rx="11" ry="11" style="stroke:#181818;stroke-width:1.0;"/><path d="M505.8594,379.9316 L505.8594,382.4316 L510.1875,382.4316 L510.1875,381.5098 Q510.1875,380.9004 510.4219,380.6348 Q510.6719,380.3691 511.0469,380.3691 Q511.4219,380.3691 511.6563,380.6348 Q511.8906,380.9004 511.8906,381.5098 L511.8906,384.1348 L503.8906,384.1348 Q503.2656,384.1348 503,383.9004 Q502.75,383.666 502.75,383.2754 Q502.75,382.9004 503.0156,382.666 Q503.2813,382.4316 503.8906,382.4316 L504.1563,382.4316 L504.1563,375.7754 L503.8906,375.7754 Q503.2656,375.7754 503,375.541 Q502.75,375.3066 502.75,374.916 Q502.75,374.541 503,374.3066 Q503.2656,374.0723 503.8906,374.0723 L511.5156,374.0723 L511.5156,376.666 Q511.5156,377.2754 511.2813,377.541 Q511.0625,377.791 510.6719,377.791 Q510.2969,377.791 510.0625,377.541 Q509.8281,377.2754 509.8281,376.666 L509.8281,375.7754 L505.8594,375.7754 L505.8594,378.2285 L507.3438,378.2285 Q507.3438,377.5723 507.4688,377.3848 Q507.7344,376.9785 508.2031,376.9785 Q508.5781,376.9785 508.8125,377.2441 Q509.0469,377.4941 509.0469,378.1035 L509.0469,380.0723 Q509.0469,380.6191 508.9219,380.8066 Q508.6563,381.1973 508.2031,381.1973 Q507.7344,381.1973 507.4688,380.791 Q507.3438,380.6035 507.3438,379.9316 L505.8594,379.9316 Z " fill="#000000"/><text fill="#000000" font-family="sans-serif" font-size="14" lengthAdjust="spacing" textLength="80.1582" x="521" y="384.9316">RentalStatus</text><line style="stroke:#181818;stroke-width:0.5;" x1="493" x2="603.1582" y1="395.1348" y2="395.1348"/><text fill="#000000" font-family="sans-serif" font-size="14" lengthAdjust="spacing" textLength="38.124" x="498" y="414.2422">Active</text><text fill="#000000" font-family="sans-serif" font-size="14" lengthAdjust="spacing" textLength="57.5928" x="498" y="432.8633">Returned</text><text fill="#000000" font-family="sans-serif" font-size="14" lengthAdjust="spacing" textLength="53.6963" x="498" y="451.4844">Overdue</text><line style="stroke:#181818;stroke-width:0.5;" x1="493" x2="603.1582" y1="458.998" y2="458.998"/></g><!--link User to Email--><g id="link_User_Email"><path codeLine="39" d="M284.31,229.9548 C278.55,234.3748 272.74,238.6448 267,242.6348 C224.34,272.2548 202.77,263.9948 165,299.6348 C145.02,318.4848 131.0649,338.6728 118.5649,360.7628 " fill="none" id="User-to-Email" style="stroke:#181818;stroke-width:1.0;"/><polygon fill="#181818" points="115.61,365.9848,123.5237,360.1218,118.0724,361.6332,116.5611,356.1819,115.61,365.9848" style="stroke:#181818;stroke-width:1.0;"/></g><!--link User to Password--><g id="link_User_Password"><path codeLine="40" d="M343.86,242.8948 C335.63,283.3148 327.0868,325.2753 319.9968,360.1053 " fill="none" id="User-to-Password" style="stroke:#181818;stroke-width:1.0;"/><polygon fill="#181818" points="318.8,365.9848,324.5148,357.9635,319.7973,361.0852,316.6756,356.3678,318.8,365.9848" style="stroke:#181818;stroke-width:1.0;"/></g><!--link Book to BookInfo--><g id="link_Book_BookInfo"><path codeLine="90" d="M1088,223.6348 C1088,260.9748 1088,303.0548 1088,341.5748 " fill="none" id="Book-to-BookInfo" style="stroke:#181818;stroke-width:1.0;"/><polygon fill="#181818" points="1088,347.5748,1092,338.5748,1088,342.5748,1084,338.5748,1088,347.5748" style="stroke:#181818;stroke-width:1.0;"/></g><!--link Book to ISBN--><g id="link_Book_ISBN"><path codeLine="91" d="M1123.21,223.6348 C1148.78,267.2048 1179.8829,320.2102 1203.6829,360.7602 " fill="none" id="Book-to-ISBN" style="stroke:#181818;stroke-width:1.0;"/><polygon fill="#181818" points="1206.72,365.9348,1205.6141,356.1482,1204.1891,361.6226,1198.7146,360.1977,1206.72,365.9348" style="stroke:#181818;stroke-width:1.0;"/></g><!--link Book to Copies--><g id="link_Book_Copies"><path codeLine="92" d="M1145.91,191.0148 C1192.75,215.0948 1258.5,253.4548 1306,299.6348 C1323.11,316.2648 1335.2474,332.301 1347.5874,351.851 " fill="none" id="Book-to-Copies" style="stroke:#181818;stroke-width:1.0;"/><polygon fill="#181818" points="1350.79,356.9248,1349.3686,347.179,1348.1212,352.6966,1342.6036,351.4491,1350.79,356.9248" style="stroke:#181818;stroke-width:1.0;"/></g><!--link Rating to RatingScore--><g id="link_Rating_RatingScore"><path codeLine="93" d="M914.81,485.6848 C913.07,508.9248 911.6279,528.3115 910.0379,549.5515 " fill="none" id="Rating-to-RatingScore" style="stroke:#181818;stroke-width:1.0;"/><polygon fill="#181818" points="909.59,555.5348,914.2507,546.8585,909.9632,550.5487,906.273,546.2613,909.59,555.5348" style="stroke:#181818;stroke-width:1.0;"/></g><!--link Rating to Comment--><g id="link_Rating_Comment"><path codeLine="94" d="M970.08,485.6848 C986.81,508.9248 1001.5746,529.4253 1016.8646,550.6653 " fill="none" id="Rating-to-Comment" style="stroke:#181818;stroke-width:1.0;"/><polygon fill="#181818" points="1020.37,555.5348,1018.3582,545.8936,1017.4488,551.4768,1011.8656,550.5674,1020.37,555.5348" style="stroke:#181818;stroke-width:1.0;"/></g><!--reverse link Book to Rating--><g id="link_Book_Rating"><path codeLine="95" d="M1041.0751,233.6003 C1016.7051,269.9303 992.21,306.4548 966.76,344.4148 " fill="none" id="Book-backto-Rating" style="stroke:#181818;stroke-width:1.0;"/><polygon fill="#181818" points="1047.76,223.6348,1041.0957,226.3893,1041.0751,233.6003,1047.7394,230.8458,1047.76,223.6348" style="stroke:#181818;stroke-width:1.0;"/><polygon fill="#000000" points="1016.2151,286.4329,1023.6939,280.5576,1018.8121,277.2838,1016.2151,286.4329" style="stroke:#000000;stroke-width:1.0;"/><text fill="#000000" font-family="sans-serif" font-size="13" lengthAdjust="spacing" textLength="20.96" x="1028" y="287.6631">has</text><text fill="#000000" font-family="sans-serif" font-size="13" lengthAdjust="spacing" textLength="7.23" x="1035.4363" y="246.1216">1</text><text fill="#000000" font-family="sans-serif" font-size="13" lengthAdjust="spacing" textLength="19.5127" x="951.6124" y="333.2831">0..*</text></g><!--link Rental to RentalPeriod--><g id="link_Rental_RentalPeriod"><path codeLine="122" d="M714,485.6848 C714,505.6948 714,521.2848 714,540.4548 " fill="none" id="Rental-to-RentalPeriod" style="stroke:#181818;stroke-width:1.0;"/><polygon fill="#181818" points="714,546.4548,718,537.4548,714,541.4548,710,537.4548,714,546.4548" style="stroke:#181818;stroke-width:1.0;"/></g><!--link User to Rental--><g id="link_User_Rental"><path codeLine="128" d="M435.88,219.2648 C474.77,245.1548 523.96,274.0448 572,291.6348 C593.13,299.3748 602.54,288.3348 622,299.6348 C641.07,310.7148 654.0165,322.6958 667.7565,339.9058 " fill="none" id="User-to-Rental" style="stroke:#181818;stroke-width:1.0;"/><polygon fill="#181818" points="671.5,344.5948,669.0107,335.0657,668.3804,340.6873,662.7588,340.057,671.5,344.5948" style="stroke:#181818;stroke-width:1.0;"/><polygon fill="#000000" points="581.4356,284.588,574.768,277.8061,572.0551,283.0204,581.4356,284.588" style="stroke:#000000;stroke-width:1.0;"/><text fill="#000000" font-family="sans-serif" font-size="13" lengthAdjust="spacing" textLength="28.9009" x="586" y="287.6631">rents</text><text fill="#000000" font-family="sans-serif" font-size="13" lengthAdjust="spacing" textLength="7.23" x="443.462" y="220.9074">1</text><text fill="#000000" font-family="sans-serif" font-size="13" lengthAdjust="spacing" textLength="19.5127" x="647.1453" y="333.4817">0..*</text></g><!--link Book to Rental--><g id="link_Book_Rental"><path codeLine="129" d="M1030.33,187.8648 C975.86,212.1148 893.17,252.5148 829,299.6348 C811.06,312.8048 797.5238,324.5537 781.4638,340.3037 " fill="none" id="Book-to-Rental" style="stroke:#181818;stroke-width:1.0;"/><polygon fill="#181818" points="777.18,344.5048,786.4064,341.059,780.7498,341.0039,780.8049,335.3473,777.18,344.5048" style="stroke:#181818;stroke-width:1.0;"/><polygon fill="#000000" points="868.7363,284.8919,877.9845,282.6735,874.9143,277.6612,868.7363,284.8919" style="stroke:#000000;stroke-width:1.0;"/><text fill="#000000" font-family="sans-serif" font-size="13" lengthAdjust="spacing" textLength="63.5908" x="882" y="287.6631">is rented in</text><text fill="#000000" font-family="sans-serif" font-size="13" lengthAdjust="spacing" textLength="7.23" x="1015.1181" y="187.1282">1</text><text fill="#000000" font-family="sans-serif" font-size="13" lengthAdjust="spacing" textLength="19.5127" x="763.7236" y="333.3824">0..*</text></g><!--link User to Rating--><g id="link_User_Rating"><path codeLine="130" d="M435.83,184.6448 C554.24,217.7848 772.91,280.4048 805,299.6348 C825.06,311.6548 839.9293,323.7003 856.6393,340.1903 " fill="none" id="User-to-Rating" style="stroke:#181818;stroke-width:1.0;"/><polygon fill="#181818" points="860.91,344.4048,857.3136,335.236,857.3511,340.8927,851.6944,340.9302,860.91,344.4048" style="stroke:#181818;stroke-width:1.0;"/><polygon fill="#000000" points="790.6899,284.0138,783.2248,278.1212,781.1869,283.6344,790.6899,284.0138" style="stroke:#000000;stroke-width:1.0;"/><text fill="#000000" font-family="sans-serif" font-size="13" lengthAdjust="spacing" textLength="30.3481" x="795" y="287.6631">gives</text><text fill="#000000" font-family="sans-serif" font-size="13" lengthAdjust="spacing" textLength="7.23" x="443.4072" y="182.9877">1</text><text fill="#000000" font-family="sans-serif" font-size="13" lengthAdjust="spacing" textLength="19.5127" x="834.8466" y="333.2721">0..*</text></g><!--SRC=[bLNTJzim47_lNt7go_XG47kDMAL04AiqIjN2tjtaIBqcTcKxC3Rnl-zi9o6c3HrzQCy_t_VzpZNSb0W_-4enzG9tekG2OO72i1AMBzfW1H6aQGgfh1WNS2jpB4SZlU5YonIh82kPreanYgzgWzDCYYN_Wt0-6ds1RqCVkdlGg20f2eK5C_YXyfPb6rOWZ4ERCVmTWO_llTaZmAcLftaCDpNFFJ9Z5SQWAKTHUEIQYYbZS3yUcPERPwd8hfKylf0bsLgVLlBOqZ1JQuzwcV3NKPUDSmiN5pzPMUFTwXTcPZ9fqekIF5UeTPWFrwJBywFZ65PIbg6xDg4XZz-PNeVk7fMivYNDwnv_cwFjSzvU7mVbkHWewgghht7viBnUEE4scIKtZPoajzFPZfMllx5BCiEVV9CkIvbji8lY1XH5awxb7T3bytg8CfTIRZvBcT2cJnbtqr36oY5bfk9Hnax7IWssl9p5OB_z-KfkET8W_MyuizPoQ6RtTk-2eKL9RTPIXTYyNfLSh_4TV4Mr55AzzD1UR9lXKDmhsjzFKC-NDaZb9vebMzb2k31DOPAUZhVpQSQ4VKxskrymGtcqK_2dS0wxoxpCfAA0NjaTscbK5GMout22HrFgL0ps-vvNk2-wSp5KOHEig-P0irpWmP7JBeQjrqnmGw-bTHSEqf7JRaUFWHtMCB0xT_nhsccni3szYxVkEFlnrp6SH16Cpy_EJiQjOWnhfc5oU2MRVufFBkLxg_vQDdSj9Tpf42LsrtUEYaj2lBq_XM-tlzdtUlTj1dbXc38xtAABjCOzCF7cxWbLNkDxvhXtj9_BxakwG5ChWJx_narhtdJBJRnVwdyChgHHIw5XXUOPKRnDGtzewjvjoneRisMDpo86HOBbJKUjVKfSEptCQQr8Tw_3beO5DS4w_0S0]--></g></svg>